<svg width="242" height="58" viewBox="0 0 242 58" fill="none" xmlns="http://www.w3.org/2000/svg">
<path d="M65.3154 47L56.4054 23.24H63.2904L68.6004 40.34L74.0004 23.24H80.6604L71.7504 47H65.3154ZM94.0701 47.675C92.3001 47.675 90.6651 47.375 89.1651 46.775C87.6951 46.145 86.4201 45.275 85.3401 44.165C84.2601 43.025 83.4201 41.69 82.8201 40.16C82.2201 38.6 81.9201 36.905 81.9201 35.075C81.9201 33.305 82.2201 31.655 82.8201 30.125C83.4201 28.595 84.2451 27.275 85.2951 26.165C86.3751 25.025 87.6351 24.14 89.0751 23.51C90.5151 22.88 92.0751 22.565 93.7551 22.565C95.4951 22.565 97.0701 22.865 98.4801 23.465C99.9201 24.065 101.15 24.92 102.17 26.03C103.19 27.14 103.97 28.46 104.51 29.99C105.08 31.52 105.365 33.23 105.365 35.12V36.695H88.3101C88.5801 38.465 89.2251 39.86 90.2451 40.88C91.2651 41.87 92.5551 42.365 94.1151 42.365C95.1951 42.365 96.1701 42.11 97.0401 41.6C97.9401 41.09 98.6751 40.355 99.2451 39.395L104.87 41.195C104.33 42.545 103.52 43.7 102.44 44.66C101.36 45.62 100.1 46.37 98.6601 46.91C97.2201 47.42 95.6901 47.675 94.0701 47.675ZM93.7551 27.425C92.3751 27.425 91.2051 27.875 90.2451 28.775C89.3151 29.675 88.7001 30.905 88.4001 32.465H98.8851C98.6451 30.905 98.0601 29.675 97.1301 28.775C96.2301 27.875 95.1051 27.425 93.7551 27.425ZM109.275 47V23.24H115.08L115.26 26.3C115.95 25.16 116.895 24.26 118.095 23.6C119.325 22.91 120.72 22.565 122.28 22.565C124.02 22.565 125.535 22.985 126.825 23.825C128.145 24.635 129.165 25.805 129.885 27.335C130.605 28.865 130.965 30.665 130.965 32.735V47H124.665V33.545C124.665 31.895 124.29 30.605 123.54 29.675C122.79 28.715 121.755 28.235 120.435 28.235C119.475 28.235 118.635 28.46 117.915 28.91C117.195 29.33 116.625 29.93 116.205 30.71C115.785 31.49 115.575 32.375 115.575 33.365V47H109.275ZM145.64 47.675C143.99 47.675 142.565 47.36 141.365 46.73C140.195 46.07 139.28 45.125 138.62 43.895C137.99 42.665 137.675 41.165 137.675 39.395V28.325H133.625V23.24H137.675V15.14H143.975V23.24H150.455V28.325H143.975V38.63C143.975 39.77 144.215 40.655 144.695 41.285C145.175 41.885 145.91 42.185 146.9 42.185C147.41 42.185 147.95 42.11 148.52 41.96C149.12 41.81 149.69 41.615 150.23 41.375L151.355 46.1C150.575 46.58 149.705 46.955 148.745 47.225C147.785 47.525 146.75 47.675 145.64 47.675Z" fill="#5669FF"/>
<path d="M155.471 47V15.05H162.176V27.515H176.306V15.05H183.011V47H176.306V33.455H162.176V47H155.471ZM199.175 47.675C197.015 47.675 195.125 47.225 193.505 46.325C191.915 45.395 190.67 44.09 189.77 42.41C188.9 40.7 188.465 38.69 188.465 36.38V23.24H194.765V36.515C194.765 38.225 195.17 39.575 195.98 40.565C196.79 41.525 197.885 42.005 199.265 42.005C200.645 42.005 201.74 41.525 202.55 40.565C203.36 39.575 203.765 38.225 203.765 36.515V23.24H210.065V36.38C210.065 38.09 209.81 39.635 209.3 41.015C208.79 42.395 208.055 43.58 207.095 44.57C206.135 45.56 204.98 46.325 203.63 46.865C202.31 47.405 200.825 47.675 199.175 47.675ZM215.095 47V13.43H221.395V26.255C222.235 25.115 223.285 24.215 224.545 23.555C225.835 22.895 227.245 22.565 228.775 22.565C230.335 22.565 231.775 22.88 233.095 23.51C234.415 24.14 235.57 25.025 236.56 26.165C237.55 27.275 238.315 28.58 238.855 30.08C239.425 31.58 239.71 33.215 239.71 34.985C239.71 36.785 239.425 38.45 238.855 39.98C238.285 41.51 237.49 42.86 236.47 44.03C235.45 45.17 234.25 46.07 232.87 46.73C231.49 47.36 230.005 47.675 228.415 47.675C226.855 47.675 225.445 47.345 224.185 46.685C222.925 46.025 221.89 45.095 221.08 43.895L220.9 47H215.095ZM227.29 42.005C228.43 42.005 229.45 41.705 230.35 41.105C231.25 40.505 231.955 39.695 232.465 38.675C233.005 37.625 233.275 36.44 233.275 35.12C233.275 33.8 233.005 32.63 232.465 31.61C231.955 30.56 231.25 29.735 230.35 29.135C229.45 28.535 228.43 28.235 227.29 28.235C226.15 28.235 225.13 28.535 224.23 29.135C223.33 29.735 222.61 30.56 222.07 31.61C221.56 32.63 221.305 33.8 221.305 35.12C221.305 36.44 221.56 37.625 222.07 38.675C222.61 39.695 223.33 40.505 224.23 41.105C225.13 41.705 226.15 42.005 227.29 42.005Z" fill="#00F8FF"/>
<path d="M45.2513 30.1323L45.3504 30.1819C47.655 31.4704 48.547 34.3697 47.3328 36.699C43.1202 44.7525 34.6455 50.2536 24.907 50.1793C11.3276 50.0801 0.201484 39.0283 0.00324541 25.4489C-0.219774 11.4235 11.0799 0 25.0805 0C32.9853 0 40.0475 3.66742 44.6318 9.39157L35.6615 14.2484C32.787 11.4483 28.7975 9.76327 24.4362 9.93673C16.4323 10.2589 9.98954 16.8751 9.89042 24.9038C9.7913 33.3785 16.6305 40.2673 25.0557 40.2673C30.9038 40.2673 35.9836 36.9716 38.5112 32.1147C39.7997 29.6863 42.8477 28.7942 45.2513 30.1323Z" fill="#5669FF"/>
<path d="M47.4072 13.6536C48.5223 15.8342 47.7293 18.5105 45.5735 19.6999L40.0723 22.7478L26.4434 30.3057C24.3123 31.4951 21.6361 30.9004 20.1989 28.918L20.1493 28.8437C18.4395 26.4896 19.1829 23.1443 21.76 21.7566L35.6863 14.2236L44.6566 9.3667C45.6974 10.7048 46.6142 12.142 47.4072 13.6536Z" fill="#00F8FF"/>
</svg>
